<?xml version="1.0" encoding="utf-8"?>
<svg viewBox="10 10 128 128" xmlns="http://www.w3.org/2000/svg">
    <path fill="#0088FF" data-type="circle" data-cx="256" data-cy="256" data-r="256" d="M256,256m-256,0a256,256 0 1, 0 512,0a256,256 0 1, 0 -512,0" data-uid="o_f9ih6554j_8" transform="matrix(0.2073490023612976, 0, 0, 0.2073490023612976, 20.233314514160156, 24.27113342285156)"/>
    <path d="M508.707 297.061l-49.254-49.254l-19.159-11.559L326.309 122.106l-27.188-11.104l-48.159 117.915l-63.423-62.748L52.548 247.806v17.677L295.955 508.89C404.971 491.803 491.153 405.922 508.707 297.061z" fill="#0050C3" data-uid="o_f9ih6554j_9" transform="matrix(0.2073490023612976, 0, 0, 0.2073490023612976, 20.233314514160156, 24.27113342285156)"/>
    <path d="M52.548 247.806l134.991-81.638v37.605l-83.887 52.068l83.887 50.783v39.211L52.548 265.483V247.806z" fill="#FFFFFF" data-uid="o_f9ih6554j_10" transform="matrix(0.2073490023612976, 0, 0, 0.2073490023612976, 20.233314514160156, 24.27113342285156)"/>
    <path d="M459.452 265.483L324.14 345.835v-39.211l83.887-50.783l-83.887-52.068v-37.605l135.312 81.638L459.452 265.483L459.452 265.483z" fill="#FFF5CB" data-uid="o_f9ih6554j_11" transform="matrix(0.2073490023612976, 0, 0, 0.2073490023612976, 20.233314514160156, 24.27113342285156)"/>
    <path transform="matrix(-0.1919637116658386, -0.07839863468648822, 0.07839863468648822, -0.1919637116658386, 102.29487773227991, 146.54881649815434)" fill="#FFFFFF" data-type="rect" data-x="241.088" data-y="105.374" data-width="29.369" data-height="301.27" d="M241.088 105.374H270.457 V406.644 H241.088 Z" data-uid="o_f9ih6554j_12"/>
    <path fill="#FFF5CB" data-type="polygon" d="M326.311 122.105L256 294.268L256 216.583L299.121 110.998Z" data-uid="o_f9ih6554j_13" transform="matrix(0.2073490023612976, 0, 0, 0.2073490023612976, 20.233314514160156, 24.27113342285156)"/>
</svg>