<?xml version="1.0" encoding="utf-8"?>
<svg viewBox="181.416 128.1893 106.163 106.3214" width="106.163" height="106.3214" xmlns="http://www.w3.org/2000/svg">
    <path fill="#08F" d="M 181.416 181.35 C 181.416 222.212 225.651 247.751 261.038 227.32 C 277.462 217.838 287.579 200.314 287.579 181.35 C 287.579 140.488 243.345 114.949 207.957 135.38 C 191.534 144.863 181.416 162.386 181.416 181.35"/>
    <path fill="#0050C3" d="M 286.896 189.864 L 276.683 179.651 L 272.711 177.255 L 249.076 153.587 L 243.439 151.285 L 233.453 175.735 L 220.302 162.724 L 192.312 179.651 L 192.312 183.317 L 242.782 233.787 C 265.387 230.244 283.256 212.436 286.896 189.864 Z"/>
    <path fill="#FFF" d="M 192.312 179.651 L 220.302 162.724 L 220.302 170.521 L 202.908 181.317 L 220.302 191.847 L 220.302 199.977 L 192.312 183.317 L 192.312 179.651 Z"/>
    <path fill="#FFF5CB" d="M 276.683 183.317 L 248.626 199.977 L 248.626 191.847 L 266.02 181.317 L 248.626 170.521 L 248.626 162.724 L 276.683 179.651 L 276.683 183.317 Z"/>
    <path fill="#FFF" d="M 231.405 150.115 L 237.495 150.115 L 237.495 212.585 L 231.405 212.585 L 231.405 150.115 Z" style="transform-origin: 234.45px 181.35px;" transform="matrix(-0.925769090652, -0.378088951111, 0.378088951111, -0.925769090652, 0.000026065313, -0.000018325255)"/>
    <path fill="#FFF5CB" d="M 249.077 153.587 L 234.498 189.285 L 234.498 173.177 L 243.439 151.284 L 249.077 153.587 Z"/>
</svg>